<svg id="Layer_1" data-name="Layer 1" xmlns="http://www.w3.org/2000/svg" xmlns:xlink="http://www.w3.org/1999/xlink" viewBox="0 0 1000 1000"><defs><style>.cls-1{fill:url(#linear-gradient);}.cls-2{fill:url(#linear-gradient-2);}.cls-3{fill:url(#linear-gradient-3);}.cls-4{fill:url(#linear-gradient-4);}.cls-5{fill:url(#linear-gradient-5);}.cls-6{fill:url(#linear-gradient-6);}.cls-7{fill:url(#linear-gradient-7);}.cls-8{fill:none;clip-rule:evenodd;}.cls-9{clip-path:url(#clip-path);}.cls-10{fill:url(#linear-gradient-8);}.cls-11{clip-path:url(#clip-path-2);}.cls-12{fill:url(#linear-gradient-9);}.cls-13{clip-path:url(#clip-path-3);}.cls-14{fill:url(#linear-gradient-10);}.cls-15{clip-path:url(#clip-path-4);}.cls-16{fill:url(#linear-gradient-11);}.cls-17{clip-path:url(#clip-path-5);}.cls-18{fill:url(#linear-gradient-12);}.cls-19{clip-path:url(#clip-path-6);}.cls-20{fill:url(#linear-gradient-13);}.cls-21{clip-path:url(#clip-path-7);}.cls-22{fill:url(#linear-gradient-14);}.cls-23{clip-path:url(#clip-path-8);}.cls-24{fill:url(#linear-gradient-15);}.cls-25{clip-path:url(#clip-path-9);}.cls-26{fill:url(#linear-gradient-16);}.cls-27{clip-path:url(#clip-path-10);}.cls-28{fill:url(#linear-gradient-17);}.cls-29{clip-path:url(#clip-path-11);}.cls-30{fill:url(#linear-gradient-18);}.cls-31{clip-path:url(#clip-path-12);}.cls-32{fill:url(#linear-gradient-19);}.cls-33{mask:url(#mask);}.cls-34{fill:#ffe0b2;}.cls-34,.cls-36,.cls-46{fill-rule:evenodd;}.cls-35{mask:url(#mask-2);}.cls-36{fill:url(#linear-gradient-20);}.cls-37{clip-path:url(#clip-path-13);}.cls-38{fill:url(#linear-gradient-21);}.cls-39{clip-path:url(#clip-path-14);}.cls-40{fill:url(#linear-gradient-22);}.cls-41{clip-path:url(#clip-path-15);}.cls-42{fill:url(#linear-gradient-23);}.cls-43{clip-path:url(#clip-path-16);}.cls-44{fill:url(#linear-gradient-24);}.cls-45{mask:url(#mask-3);}.cls-46{fill:#ffcc80;}.cls-47{clip-path:url(#clip-path-17);}.cls-48{fill:url(#linear-gradient-25);}.cls-49{clip-path:url(#clip-path-18);}.cls-50{fill:url(#linear-gradient-26);}.cls-51{clip-path:url(#clip-path-19);}.cls-52{fill:url(#linear-gradient-27);}.cls-53{clip-path:url(#clip-path-20);}.cls-54{fill:url(#linear-gradient-28);}.cls-55{clip-path:url(#clip-path-21);}.cls-56{fill:url(#linear-gradient-29);}.cls-57{clip-path:url(#clip-path-22);}.cls-58{fill:url(#linear-gradient-30);}.cls-59{clip-path:url(#clip-path-23);}.cls-60{fill:url(#linear-gradient-31);}.cls-61{clip-path:url(#clip-path-24);}.cls-62{fill:url(#linear-gradient-32);}.cls-63{mask:url(#mask-4);}.cls-64{mask:url(#mask-5);}.cls-65{mask:url(#mask-6);}.cls-66{mask:url(#mask-7);}.cls-67{fill:#fff;}.cls-68{fill:#231f20;}.cls-69{fill:#082732;}.cls-70{fill:#e65100;}.cls-71{fill:#2c5f79;}.cls-72{fill:#00adb5;}</style><linearGradient id="linear-gradient" x1="-1084.78" y1="1250.85" x2="-1084.78" y2="878.61" gradientTransform="translate(1497.17 -324.76)" gradientUnits="userSpaceOnUse"><stop offset="0" stop-color="#fff"/><stop offset="1"/></linearGradient><linearGradient id="linear-gradient-2" x1="-902.53" y1="812.66" x2="-984.46" y2="1118.39" gradientTransform="translate(1606.12 -394.15)" xlink:href="#linear-gradient"/><linearGradient id="linear-gradient-3" x1="-898.09" y1="730.32" x2="-979.26" y2="1033.26" gradientTransform="translate(1649.7 -439.12)" xlink:href="#linear-gradient"/><linearGradient id="linear-gradient-4" x1="-1091.98" y1="764.19" x2="-1091.98" y2="961.17" gradientTransform="translate(1449.48 -402.54)" xlink:href="#linear-gradient"/><linearGradient id="linear-gradient-5" x1="-978.36" y1="790.3" x2="-978.36" y2="936.04" gradientTransform="translate(1619.66 -552.63)" xlink:href="#linear-gradient"/><linearGradient id="linear-gradient-6" x1="-955.41" y1="817.98" x2="-955.41" y2="997.75" gradientTransform="translate(1649.7 -439.12)" xlink:href="#linear-gradient"/><linearGradient id="linear-gradient-7" x1="-1164.68" y1="866.02" x2="-1164.68" y2="960.43" gradientTransform="translate(1497.45 -599.67)" xlink:href="#linear-gradient"/><clipPath id="clip-path"><path class="cls-8" d="M766.43,737.12C848.28,591.5,797.9,406.74,652.84,323S322.59,288,237.4,431.69c106.9-35.06,227.7-26.22,332.79,34.45S743.34,627,766.43,737.12"/></clipPath><linearGradient id="linear-gradient-8" x1="542.84" y1="470.74" x2="542.84" y2="255.05" gradientUnits="userSpaceOnUse"><stop offset="0" stop-color="#5e147d"/><stop offset="1" stop-color="#c2185b"/></linearGradient><clipPath id="clip-path-2"><path class="cls-8" d="M762.83,431.69C677.64,288,492.44,239.24,347.39,323S152,591.5,233.8,737.12C256.89,627,324.94,526.82,430,466.14s225.89-69.51,332.79-34.45"/></clipPath><linearGradient id="linear-gradient-9" x1="457.39" y1="669.55" x2="457.39" y2="276.91" xlink:href="#linear-gradient-8"/><clipPath id="clip-path-3"><path class="cls-8" d="M417.75,473.52q6.06-3.76,12.29-7.38a414.83,414.83,0,0,1,52-25.38c30-50.16,30-108.06,16.62-158.5,7.58,67.34-8.8,143.84-80.89,191.22Z"/></clipPath><linearGradient id="linear-gradient-10" x1="464.94" y1="558.63" x2="464.94" y2="216.12" xlink:href="#linear-gradient-8"/><clipPath id="clip-path-4"><path class="cls-8" d="M535.47,284.11h0C547.32,325,563.3,369.28,576,415.4q12.51-1.81,25.06-2.85C579.9,367,555.14,324.1,535.47,284.11"/></clipPath><linearGradient id="linear-gradient-11" x1="568.23" y1="473.83" x2="568.23" y2="238.7" xlink:href="#linear-gradient-8"/><clipPath id="clip-path-5"><path class="cls-8" d="M237.4,743.36C322.59,887.05,507.79,935.8,652.84,852.05s195.44-268.5,113.59-414.13c-23.09,110.11-91.14,210.3-196.24,271S344.3,778.42,237.4,743.36"/></clipPath><linearGradient id="linear-gradient-12" x1="463.9" y1="981.46" x2="600.24" y2="472.66" gradientUnits="userSpaceOnUse"><stop offset="0" stop-color="#97176f"/><stop offset="0.43" stop-color="#e91e63"/><stop offset="1" stop-color="#ff8a65"/></linearGradient><clipPath id="clip-path-6"><path class="cls-8" d="M233.8,437.92C152,583.55,202.33,768.31,347.39,852.05s330.25,35,415.44-108.69C655.93,778.42,535.13,769.58,430,708.9S256.89,548,233.8,437.92"/></clipPath><linearGradient id="linear-gradient-13" x1="397.19" y1="911.56" x2="509.25" y2="493.33" xlink:href="#linear-gradient-12"/><clipPath id="clip-path-7"><path class="cls-8" d="M496.51,282.09C329.48,284,194.66,420,194.66,587.52S329.48,891,496.51,893A408.86,408.86,0,0,1,360,587.52c0-121.35,52.74-230.38,136.55-305.43"/></clipPath><linearGradient id="linear-gradient-14" x1="256.84" y1="587.52" x2="494.49" y2="587.52" gradientUnits="userSpaceOnUse"><stop offset="0" stop-color="#97176f"/><stop offset="1" stop-color="#e91e63"/></linearGradient><clipPath id="clip-path-8"><path class="cls-8" d="M366.31,659.77c-.2-1.1-.38-2.2-.57-3.3Zm129.56,232.6C388.25,795.6,341.15,652.82,367,511.43c-57,48.79-96.79,108.45-123.88,192.86C279,784.49,376.9,883.21,495.87,892.37Z"/></clipPath><linearGradient id="linear-gradient-15" x1="228.55" y1="620.52" x2="574.81" y2="820.45" xlink:href="#linear-gradient-12"/><clipPath id="clip-path-9"><path class="cls-8" d="M495.33,739.15,492.19,738Zm266.23,4.1c-137.63,44.81-284.82,14.21-394.34-78.88,13.76,73.74,45.53,138,105.09,203.71C559.69,877.12,694.14,841.7,761.56,743.25Z"/></clipPath><linearGradient id="linear-gradient-16" x1="519.23" y1="939.29" x2="600.02" y2="637.79" xlink:href="#linear-gradient-12"/><clipPath id="clip-path-10"><path class="cls-8" d="M761.56,743.24a408.81,408.81,0,0,1-332-34.72,413,413,0,0,1-62.37-44.15,401.74,401.74,0,0,0,11.33,45.91c111.49,74.76,262.84,99.92,383,33"/></clipPath><linearGradient id="linear-gradient-17" x1="477.63" y1="887.56" x2="580.68" y2="709.07" gradientUnits="userSpaceOnUse"><stop offset="0" stop-color="#d81b60"/><stop offset="1" stop-color="#ff8a65"/></linearGradient><clipPath id="clip-path-11"><path class="cls-8" d="M629.47,667.33l-2.57,2.13ZM766.13,438.82c-30,141.59-130.1,253.77-265.47,302.06,70.74,25,142.31,29.6,229,10.85C781.14,680.57,817.68,546.43,766.13,438.82Z"/></clipPath><linearGradient id="linear-gradient-18" x1="586.81" y1="874.69" x2="718.38" y2="383.69" xlink:href="#linear-gradient-12"/><clipPath id="clip-path-12"><path class="cls-8" d="M766.13,438.82A408.87,408.87,0,0,1,570.08,709a413.27,413.27,0,0,1-69.42,31.93A401.6,401.6,0,0,0,546.08,754c120.49-59.18,218-177.67,220-315.21"/></clipPath><linearGradient id="linear-gradient-19" x1="467.58" y1="883.62" x2="702.12" y2="477.39" xlink:href="#linear-gradient-12"/><mask id="mask" x="328.9" y="544.19" width="166.97" height="348.18" maskUnits="userSpaceOnUse"><rect class="cls-1" x="328.9" y="544.19" width="166.97" height="348.18"/></mask><mask id="mask-2" x="545.55" y="440.05" width="220.08" height="315.21" maskUnits="userSpaceOnUse"><rect class="cls-2" x="545.55" y="440.05" width="220.08" height="315.21"/></mask><linearGradient id="linear-gradient-20" x1="545.55" y1="597.65" x2="765.63" y2="597.65" xlink:href="#linear-gradient-12"/><clipPath id="clip-path-13"><path class="cls-8" d="M495.87,892.37C412.44,817.34,360,708.56,360,587.52A412,412,0,0,1,367,511.43a402.27,402.27,0,0,0-34.09,32.76c-9,133.94,44.89,277.6,163,348.18"/></clipPath><linearGradient id="linear-gradient-21" x1="409.89" y1="425.97" x2="409.89" y2="1123.46" xlink:href="#linear-gradient-17"/><clipPath id="clip-path-14"><path class="cls-8" d="M328.61,323.37c11.75-19.61,18.88-47.32,4.21-75.06-17.05,55.5-87.14,134.48-122.65,243.11C188,559.24,186.39,645.5,223.45,717.6l10.35,19.63,5.77-21.43c34.23-114.31,90.24-184.46,178.25-242.32C550,386.62,495,201.92,448.19,155.15c0,85.38-65.12,133.47-119.58,168.22"/></clipPath><linearGradient id="linear-gradient-22" x1="368.18" y1="646.4" x2="368.18" y2="62.22" gradientUnits="userSpaceOnUse"><stop offset="0" stop-color="#d81b60"/><stop offset="1" stop-color="#ffeb3b"/></linearGradient><clipPath id="clip-path-15"><path class="cls-8" d="M743,291.78c-1.09,32.06-7.13,59.13-18.28,74.79,6.18-139.44-218.59-177.3-131-309.89-182,83.49-53.68,213.93,15.82,374.9,30.81,71.37,40.78,160.25,23.53,232.71,52.48-42.66,119.75-135,134.12-226.66,7-44.5,1.49-107.43-24.21-145.85"/></clipPath><linearGradient id="linear-gradient-23" x1="592.95" y1="557.89" x2="592.95" y2="47.74" xlink:href="#linear-gradient-22"/><clipPath id="clip-path-16"><path class="cls-8" d="M553.87,79c-120.7,83.59-7.9,205.31,55.69,352.59,30.81,71.37,40.78,160.25,23.53,232.71C829.56,392.86,442.5,205.51,553.87,79"/></clipPath><linearGradient id="linear-gradient-24" x1="636.32" y1="524.61" x2="617.03" y2="-70.9" xlink:href="#linear-gradient-22"/><mask id="mask-3" x="633.09" y="291.78" width="136.9" height="372.51" maskUnits="userSpaceOnUse"><rect class="cls-3" x="633.09" y="291.78" width="136.9" height="372.51"/></mask><clipPath id="clip-path-17"><path class="cls-8" d="M535.1,94c-89,82.87,14.57,198.91,74.46,337.63,30.81,71.37,40.78,160.25,23.53,232.71C759.69,455.77,432.71,217.43,535.1,94"/></clipPath><linearGradient id="linear-gradient-25" x1="601.71" y1="528.74" x2="574.34" y2="-215.11" gradientUnits="userSpaceOnUse"><stop offset="0" stop-color="#c40e51"/><stop offset="1" stop-color="#ffeb3b"/></linearGradient><clipPath id="clip-path-18"><path class="cls-8" d="M743,291.78c-1.09,32.06-7.13,59.14-18.28,74.79-.34,18.62-4.8,55.44-16.19,71.35,0,0,52.63-54.17,34.47-146.14"/></clipPath><linearGradient id="linear-gradient-26" x1="734.84" y1="426.79" x2="734.84" y2="82.03" xlink:href="#linear-gradient-22"/><clipPath id="clip-path-19"><path class="cls-8" d="M724.72,366.57c6.18-139.44-218.59-177.3-131-309.89,0,0-57.74,36.79-20.55,108.92S720.43,292,708.53,437.92c0,0,15.28-21.36,16.19-71.35"/></clipPath><linearGradient id="linear-gradient-27" x1="618.52" y1="626.32" x2="618.52" y2="49.84" gradientUnits="userSpaceOnUse"><stop offset="0" stop-color="#d81b60"/><stop offset="0.71" stop-color="#f8c841"/><stop offset="1" stop-color="#fff176"/></linearGradient><clipPath id="clip-path-20"><path class="cls-8" d="M233.79,737.24l.27-1,5.51-20.46c34.23-114.31,90.24-184.47,178.25-242.32C550,386.62,495,201.92,448.19,155.15c56.32,126.9,40,222.21-44.39,294.67-92.34,79.26-166.4,171.18-170,287.42"/></clipPath><linearGradient id="linear-gradient-28" x1="83.59" y1="754.48" x2="556.4" y2="281.67" gradientUnits="userSpaceOnUse"><stop offset="0" stop-color="#d81b60"/><stop offset="0.67" stop-color="#ea7e5a"/><stop offset="1" stop-color="#fee580"/></linearGradient><clipPath id="clip-path-21"><path class="cls-8" d="M233.78,737.19c-38.52-305.51,262.73-344.8,214.41-582,0,85.38-67.73,133.32-102.33,156.92,1.54-30.05-6.22-51.78-13-63.76-17.05,55.51-87.14,134.48-122.65,243.11C188,559.24,186.39,645.5,223.45,717.6Z"/></clipPath><linearGradient id="linear-gradient-29" x1="344.06" y1="556.92" x2="331.11" y2="6.64" xlink:href="#linear-gradient-22"/><clipPath id="clip-path-22"><path class="cls-8" d="M332.82,248.31c-17.05,55.51-87.14,134.48-122.65,243.11C188,559.24,186.39,645.5,223.45,717.6l3.37,6.39c-89.42-182,103.66-370.08,106-475.68m-99,488.88v-.1l-.43-.74Z"/></clipPath><linearGradient id="linear-gradient-30" x1="235.15" y1="493.98" x2="217.74" y2="23.46" gradientUnits="userSpaceOnUse"><stop offset="0" stop-color="#ff6262"/><stop offset="1" stop-color="#ffeb3b"/></linearGradient><clipPath id="clip-path-23"><path class="cls-8" d="M448.19,155.15c0,85.38-67.73,133.32-102.33,156.92,0,0-2.13,22.35-16.2,32,0,0,134.25-69.74,118.53-188.93"/></clipPath><linearGradient id="linear-gradient-31" x1="396.78" y1="466.15" x2="396.78" y2="-63.22" xlink:href="#linear-gradient-22"/><clipPath id="clip-path-24"><path class="cls-8" d="M345.86,312.07c1.54-30.05-6.22-51.78-13-63.76,8.89,59.91-3.16,95.77-3.16,95.77,14.07-9.66,16.2-32,16.2-32"/></clipPath><linearGradient id="linear-gradient-32" x1="338.53" y1="400.62" x2="338.53" y2="219.44" xlink:href="#linear-gradient-22"/><mask id="mask-4" x="233.79" y="155.15" width="247.43" height="582.09" maskUnits="userSpaceOnUse"><rect class="cls-4" x="233.79" y="155.15" width="247.43" height="582.09"/></mask><mask id="mask-5" x="573.19" y="165.6" width="136.24" height="272.32" maskUnits="userSpaceOnUse"><rect class="cls-5" x="573.19" y="165.6" width="136.24" height="272.32"/></mask><mask id="mask-6" x="633.09" y="291.78" width="122.39" height="372.51" maskUnits="userSpaceOnUse"><rect class="cls-6" x="633.09" y="291.78" width="122.39" height="372.51"/></mask><mask id="mask-7" x="329.46" y="248.31" width="6.63" height="95.8" maskUnits="userSpaceOnUse"><rect class="cls-7" x="329.46" y="248.31" width="6.63" height="95.8"/></mask></defs><title>This_One</title><g class="cls-9"><rect class="cls-10" x="237.4" y="239.24" width="610.87" height="497.88"/></g><g class="cls-11"><rect class="cls-12" x="151.96" y="239.24" width="610.87" height="497.88"/></g><g class="cls-13"><rect class="cls-14" x="417.75" y="282.26" width="94.38" height="191.26"/></g><g class="cls-15"><rect class="cls-16" x="535.44" y="284.11" width="65.58" height="131.29"/></g><g class="cls-17"><rect class="cls-18" x="237.4" y="437.92" width="610.87" height="497.88"/></g><g class="cls-19"><rect class="cls-20" x="151.96" y="437.92" width="610.87" height="497.88"/></g><g class="cls-21"><rect class="cls-22" x="194.66" y="282.09" width="301.85" height="610.87"/></g><g class="cls-23"><rect class="cls-24" x="243.13" y="511.43" width="252.74" height="380.94"/></g><g class="cls-25"><rect class="cls-26" x="367.22" y="664.37" width="394.33" height="212.75"/></g><g class="cls-27"><rect class="cls-28" x="367.22" y="664.37" width="394.33" height="145.83"/></g><g class="cls-29"><rect class="cls-30" x="500.66" y="438.82" width="317.03" height="331.66"/></g><g class="cls-31"><rect class="cls-32" x="500.66" y="438.82" width="265.47" height="315.21"/></g><g class="cls-33"><path class="cls-34" d="M332.92,544.19c-20.57,135.95,38.51,278.47,163,348.18C377.81,821.79,323.92,678.13,332.92,544.19"/></g><g class="cls-35"><path class="cls-36" d="M545.55,755.26c128-50.16,221.91-172.59,220.06-315.21-2.1,137.54-99.56,256-220.06,315.21"/></g><g class="cls-37"><rect class="cls-38" x="323.92" y="511.43" width="171.95" height="380.94"/></g><g class="cls-39"><rect class="cls-40" x="186.39" y="155.15" width="363.58" height="582.08"/></g><g class="cls-41"><rect class="cls-42" x="411.72" y="56.68" width="362.48" height="607.62"/></g><g class="cls-43"><rect class="cls-44" x="433.17" y="78.99" width="396.38" height="585.3"/></g><g class="cls-45"><path class="cls-46" d="M633.09,664.29c52.49-42.66,119.75-135,134.12-226.66,7-44.5,1.49-107.43-24.21-145.85,0,0,67.12,186.26-109.91,372.51"/></g><g class="cls-47"><rect class="cls-48" x="432.71" y="93.95" width="326.98" height="570.34"/></g><g class="cls-49"><rect class="cls-50" x="708.53" y="291.78" width="52.63" height="146.14"/></g><g class="cls-51"><rect class="cls-52" x="506.13" y="56.68" width="224.77" height="381.25"/></g><g class="cls-53"><rect class="cls-54" x="233.79" y="155.15" width="316.18" height="582.09"/></g><g class="cls-55"><rect class="cls-56" x="186.39" y="155.15" width="310.12" height="582.04"/></g><g class="cls-57"><rect class="cls-58" x="137.4" y="248.31" width="195.42" height="488.88"/></g><g class="cls-59"><rect class="cls-60" x="329.66" y="155.15" width="134.25" height="188.93"/></g><g class="cls-61"><rect class="cls-62" x="329.66" y="248.31" width="17.73" height="95.77"/></g><g class="cls-63"><path class="cls-34" d="M448.19,155.15c56.32,126.9,35.52,217.72-48.89,290.17C307,524.58,237.4,621,233.79,737.24c3.61-116.24,77.67-208.16,170-287.42,84.4-72.46,100.71-167.77,44.39-294.67"/></g><g class="cls-64"><path class="cls-34" d="M573.19,165.6c31.53,73.71,138.59,128.83,135.34,272.32C720.43,292,610.37,237.74,573.19,165.6"/></g><g class="cls-65"><path class="cls-34" d="M743,291.78c-5,1.25,60.64,187.89-109.91,372.51C810.12,478,743,291.78,743,291.78"/></g><g class="cls-66"><path class="cls-34" d="M332.82,248.31c5.11,62.57-4.85,96.95-3.16,95.77,0,0,12-35.86,3.16-95.77"/></g><path class="cls-67" d="M747.15,492.94V778.31Q623.58,849.67,500,921L252.87,778.33q0-142.7,0-285.39L500,350.23Z"/><path class="cls-68" d="M513.17,562.12H496.91v70.14h16.26q11.1,0,11.09-14.08v-42Q524.26,562.13,513.17,562.12Zm0,0H496.91v70.14h16.26q11.1,0,11.09-14.08v-42Q524.26,562.13,513.17,562.12Zm0,0H496.91v70.14h16.26q11.1,0,11.09-14.08v-42Q524.26,562.13,513.17,562.12Zm0,0H496.91v70.14h16.26q11.1,0,11.09-14.08v-42Q524.26,562.13,513.17,562.12ZM500,382.75l-106.36,61.4v177h30.46v-82.6h24.78V733H424.11V644.72H393.65V733H368.86V458.46L281,509.18V762.06L500,888.5l69.69-40.24V538.56h61.44v23.56H594.48v59H627v23.56H594.48V834L719,762.06V509.18ZM528.13,733l-16.26-78.54h-15V733H472.13V538.56h48.52q28.4,0,28.4,33.31v47.94q0,25.46-14.72,32.23l17.3,81Zm-15-170.89H496.91v70.14h16.26q11.1,0,11.09-14.08v-42Q524.26,562.13,513.17,562.12Zm0,0H496.91v70.14h16.26q11.1,0,11.09-14.08v-42Q524.26,562.13,513.17,562.12Zm0,0H496.91v70.14h16.26q11.1,0,11.09-14.08v-42Q524.26,562.13,513.17,562.12Z"/><path class="cls-69" d="M766.46,481.78l-41.92-24.21h0l-41.92-24.21-23.78-13.73-11.89-6.87L635,405.9l-35.75-20.64q-9-5.22-18.1-10.46L560.74,363l-10.21-5.91-10.23-5.91c-2.75-1.57-5.49-3.16-8.24-4.74l-4.12-2.38c-1.38-.8-2.76-1.58-4.12-2.38L500,327.94h0q-17.58,10.14-35.15,20.3l-7.75,4.47-17.58,10.15-9.82,5.67h0l-98.08,56.62-98.09,56.64v307.7h0L300.14,828l66.63,38.45,67.53,39L500,943.31h0q13.65-7.9,27.36-15.79l7.88-4.56c2.62-1.5,5.25-3,7.87-4.54l15.76-9.1h0l31.49-18.19,20-11.53L613,878l40.35-23.28q12.69-7.35,25.4-14.67l25.39-14.66,62.29-36V481.78Zm-22.1,294.93L742,778.08l-16.69,9.63h0l-22.07,12.75-58.92,34-37.83,21.84L599,860.64l-26,15-52.31,30.19L511.84,911,500,917.79h0l-18.37-10.61L437,881.4,265.86,782.61l0,0h0l-10.18-5.88V494.56l107-61.77,26-15,33.83-19.53h0l23.47-13.54h0L500,353.47l9,5.2h0l19.51,11.26h0l71.87,41.49L634,430.8l22,12.7,67.45,39-1.26,0h1.3l20.92,12.09Z"/><path class="cls-70" d="M766.47,593.2V789.47l-62.29,36-25.39,14.66q-12.72,7.33-25.4,14.67L613,878a219,219,0,0,1-6.56-21.73l37.83-21.84,58.92-34,22.07-12.75h0L742,778.08l2.36-1.37V599.8A213.4,213.4,0,0,1,766.47,593.2Z"/><path class="cls-71" d="M600.41,410.44c0,.33,0,.67,0,1l-71.87-41.49h0L509,358.67h0l-9-5.2-54.15,31.24h0L422.4,398.26h0L388.57,417.8l-26,15-107,61.77V684q-11.25-2.6-22.12-6.11V481.78l98.09-56.64,98.08-56.62h0l9.82-5.67,17.58-10.15,7.75-4.47q17.56-10.17,35.15-20.3h0l23.8,13.74c1.36.8,2.74,1.58,4.12,2.38l4.12,2.38c2.75,1.58,5.49,3.17,8.24,4.74l10.23,5.91L560.74,363l20.45,11.8q9,5.25,18.1,10.46Q600.42,397.71,600.41,410.44Z"/><path class="cls-72" d="M437,881.4q-.8,12.17-2.69,24l-67.53-39L300.14,828l-66.6-38.47h0V611.76q11.25,2.4,22.12,5.77V776.71l10.18,5.88h0l0,0Z"/></svg>