<svg id="Layer_1" data-name="Layer 1" xmlns="http://www.w3.org/2000/svg" xmlns:xlink="http://www.w3.org/1999/xlink" viewBox="0 0 1000 1000"><defs><linearGradient id="linear-gradient" x1="-1084.78" y1="1250.85" x2="-1084.78" y2="878.61" gradientTransform="translate(1497.17 -324.76)" gradientUnits="userSpaceOnUse"><stop offset="0" stop-color="#fff"/><stop offset="1"/></linearGradient><linearGradient id="linear-gradient-2" x1="-902.53" y1="812.66" x2="-984.46" y2="1118.39" gradientTransform="translate(1606.12 -394.15)" xlink:href="#linear-gradient"/><linearGradient id="linear-gradient-3" x1="-898.09" y1="730.32" x2="-979.26" y2="1033.26" gradientTransform="translate(1649.7 -439.12)" xlink:href="#linear-gradient"/><linearGradient id="linear-gradient-4" x1="-1091.98" y1="764.19" x2="-1091.98" y2="961.17" gradientTransform="translate(1449.48 -402.54)" xlink:href="#linear-gradient"/><linearGradient id="linear-gradient-5" x1="-978.36" y1="790.3" x2="-978.36" y2="936.04" gradientTransform="translate(1619.66 -552.63)" xlink:href="#linear-gradient"/><linearGradient id="linear-gradient-6" x1="-955.41" y1="817.98" x2="-955.41" y2="997.75" gradientTransform="translate(1649.7 -439.12)" xlink:href="#linear-gradient"/><linearGradient id="linear-gradient-7" x1="-1164.68" y1="866.02" x2="-1164.68" y2="960.43" gradientTransform="translate(1497.45 -599.67)" xlink:href="#linear-gradient"/><linearGradient id="linear-gradient-8" x1="542.84" y1="470.74" x2="542.84" y2="255.05" gradientUnits="userSpaceOnUse"><stop offset="0" stop-color="#5e147d"/><stop offset="1" stop-color="#c2185b"/></linearGradient><linearGradient id="linear-gradient-9" x1="457.39" y1="669.55" x2="457.39" y2="276.91" xlink:href="#linear-gradient-8"/><linearGradient id="linear-gradient-10" x1="464.94" y1="558.63" x2="464.94" y2="216.12" xlink:href="#linear-gradient-8"/><linearGradient id="linear-gradient-11" x1="568.23" y1="473.83" x2="568.23" y2="238.7" xlink:href="#linear-gradient-8"/><linearGradient id="linear-gradient-12" x1="463.9" y1="981.46" x2="600.24" y2="472.66" gradientUnits="userSpaceOnUse"><stop offset="0" stop-color="#97176f"/><stop offset=".43" stop-color="#e91e63"/><stop offset="1" stop-color="#ff8a65"/></linearGradient><linearGradient id="linear-gradient-13" x1="397.19" y1="911.56" x2="509.25" y2="493.33" xlink:href="#linear-gradient-12"/><linearGradient id="linear-gradient-14" x1="256.84" y1="587.52" x2="494.49" y2="587.52" gradientUnits="userSpaceOnUse"><stop offset="0" stop-color="#97176f"/><stop offset="1" stop-color="#e91e63"/></linearGradient><linearGradient id="linear-gradient-15" x1="228.55" y1="620.52" x2="574.81" y2="820.45" xlink:href="#linear-gradient-12"/><linearGradient id="linear-gradient-16" x1="519.23" y1="939.29" x2="600.02" y2="637.79" xlink:href="#linear-gradient-12"/><linearGradient id="linear-gradient-17" x1="477.63" y1="887.56" x2="580.68" y2="709.07" gradientUnits="userSpaceOnUse"><stop offset="0" stop-color="#d81b60"/><stop offset="1" stop-color="#ff8a65"/></linearGradient><linearGradient id="linear-gradient-18" x1="586.81" y1="874.69" x2="718.38" y2="383.69" xlink:href="#linear-gradient-12"/><linearGradient id="linear-gradient-19" x1="467.58" y1="883.62" x2="702.12" y2="477.39" xlink:href="#linear-gradient-12"/><linearGradient id="linear-gradient-20" x1="545.55" y1="597.65" x2="765.63" y2="597.65" xlink:href="#linear-gradient-12"/><linearGradient id="linear-gradient-21" x1="409.89" y1="425.97" x2="409.89" y2="1123.46" xlink:href="#linear-gradient-17"/><linearGradient id="linear-gradient-22" x1="368.18" y1="646.4" x2="368.18" y2="62.22" gradientUnits="userSpaceOnUse"><stop offset="0" stop-color="#d81b60"/><stop offset="1" stop-color="#ffeb3b"/></linearGradient><linearGradient id="linear-gradient-23" x1="592.95" y1="557.89" x2="592.95" y2="47.74" xlink:href="#linear-gradient-22"/><linearGradient id="linear-gradient-24" x1="636.32" y1="524.61" x2="617.03" y2="-70.9" xlink:href="#linear-gradient-22"/><linearGradient id="linear-gradient-25" x1="601.71" y1="528.74" x2="574.34" y2="-215.11" gradientUnits="userSpaceOnUse"><stop offset="0" stop-color="#c40e51"/><stop offset="1" stop-color="#ffeb3b"/></linearGradient><linearGradient id="linear-gradient-26" x1="734.84" y1="426.79" x2="734.84" y2="82.03" xlink:href="#linear-gradient-22"/><linearGradient id="linear-gradient-27" x1="618.52" y1="626.32" x2="618.52" y2="49.84" gradientUnits="userSpaceOnUse"><stop offset="0" stop-color="#d81b60"/><stop offset=".71" stop-color="#f8c841"/><stop offset="1" stop-color="#fff176"/></linearGradient><linearGradient id="linear-gradient-28" x1="83.59" y1="754.48" x2="556.4" y2="281.67" gradientUnits="userSpaceOnUse"><stop offset="0" stop-color="#d81b60"/><stop offset=".67" stop-color="#ea7e5a"/><stop offset="1" stop-color="#fee580"/></linearGradient><linearGradient id="linear-gradient-29" x1="344.06" y1="556.92" x2="331.11" y2="6.64" xlink:href="#linear-gradient-22"/><linearGradient id="linear-gradient-30" x1="235.15" y1="493.98" x2="217.74" y2="23.46" gradientUnits="userSpaceOnUse"><stop offset="0" stop-color="#ff6262"/><stop offset="1" stop-color="#ffeb3b"/></linearGradient><linearGradient id="linear-gradient-31" x1="396.78" y1="466.15" x2="396.78" y2="-63.22" xlink:href="#linear-gradient-22"/><linearGradient id="linear-gradient-32" x1="338.53" y1="400.62" x2="338.53" y2="219.44" xlink:href="#linear-gradient-22"/><clipPath id="clip-path"><path class="cls-8" d="M766.43 737.12C848.28 591.5 797.9 406.74 652.84 323S322.59 288 237.4 431.69c106.9-35.06 227.7-26.22 332.79 34.45S743.34 627 766.43 737.12"/></clipPath><clipPath id="clip-path-2"><path class="cls-8" d="M762.83 431.69C677.64 288 492.44 239.24 347.39 323S152 591.5 233.8 737.12C256.89 627 324.94 526.82 430 466.14s225.89-69.51 332.79-34.45"/></clipPath><clipPath id="clip-path-3"><path class="cls-8" d="M417.75 473.52q6.06-3.76 12.29-7.38a414.83 414.83 0 0152-25.38c30-50.16 30-108.06 16.62-158.5 7.58 67.34-8.8 143.84-80.89 191.22z"/></clipPath><clipPath id="clip-path-4"><path class="cls-8" d="M535.47 284.11C547.32 325 563.3 369.28 576 415.4q12.51-1.81 25.06-2.85C579.9 367 555.14 324.1 535.47 284.11"/></clipPath><clipPath id="clip-path-5"><path class="cls-8" d="M237.4 743.36c85.19 143.69 270.39 192.44 415.44 108.69s195.44-268.5 113.59-414.13c-23.09 110.11-91.14 210.3-196.24 271s-225.89 69.5-332.79 34.44"/></clipPath><clipPath id="clip-path-6"><path class="cls-8" d="M233.8 437.92C152 583.55 202.33 768.31 347.39 852.05s330.25 35 415.44-108.69c-106.9 35.06-227.7 26.22-332.83-34.46S256.89 548 233.8 437.92"/></clipPath><clipPath id="clip-path-7"><path class="cls-8" d="M496.51 282.09C329.48 284 194.66 420 194.66 587.52S329.48 891 496.51 893A408.86 408.86 0 01360 587.52c0-121.35 52.74-230.38 136.55-305.43"/></clipPath><clipPath id="clip-path-8"><path class="cls-8" d="M366.31 659.77c-.2-1.1-.38-2.2-.57-3.3zm129.56 232.6C388.25 795.6 341.15 652.82 367 511.43c-57 48.79-96.79 108.45-123.88 192.86C279 784.49 376.9 883.21 495.87 892.37z"/></clipPath><clipPath id="clip-path-9"><path class="cls-8" d="M495.33 739.15l-3.14-1.15zm266.23 4.1c-137.63 44.81-284.82 14.21-394.34-78.88 13.76 73.74 45.53 138 105.09 203.71 87.38 9.04 221.83-26.38 289.25-124.83z"/></clipPath><clipPath id="clip-path-10"><path class="cls-8" d="M761.56 743.24a408.81 408.81 0 01-332-34.72 413 413 0 01-62.37-44.15 401.74 401.74 0 0011.33 45.91c111.49 74.76 262.84 99.92 383 33"/></clipPath><clipPath id="clip-path-11"><path class="cls-8" d="M629.47 667.33l-2.57 2.13zm136.66-228.51c-30 141.59-130.1 253.77-265.47 302.06 70.74 25 142.31 29.6 229 10.85 51.48-71.16 88.02-205.3 36.47-312.91z"/></clipPath><clipPath id="clip-path-12"><path class="cls-8" d="M766.13 438.82A408.87 408.87 0 01570.08 709a413.27 413.27 0 01-69.42 31.93A401.6 401.6 0 00546.08 754c120.49-59.18 218-177.67 220-315.21"/></clipPath><clipPath id="clip-path-13"><path class="cls-8" d="M495.87 892.37C412.44 817.34 360 708.56 360 587.52a412 412 0 017-76.09 402.27 402.27 0 00-34.09 32.76c-9 133.94 44.89 277.6 163 348.18"/></clipPath><clipPath id="clip-path-14"><path class="cls-8" d="M328.61 323.37c11.75-19.61 18.88-47.32 4.21-75.06-17.05 55.5-87.14 134.48-122.65 243.11C188 559.24 186.39 645.5 223.45 717.6l10.35 19.63 5.77-21.43c34.23-114.31 90.24-184.46 178.25-242.32C550 386.62 495 201.92 448.19 155.15c0 85.38-65.12 133.47-119.58 168.22"/></clipPath><clipPath id="clip-path-15"><path class="cls-8" d="M743 291.78c-1.09 32.06-7.13 59.13-18.28 74.79 6.18-139.44-218.59-177.3-131-309.89-182 83.49-53.68 213.93 15.82 374.9 30.81 71.37 40.78 160.25 23.53 232.71 52.48-42.66 119.75-135 134.12-226.66 7-44.5 1.49-107.43-24.21-145.85"/></clipPath><clipPath id="clip-path-16"><path class="cls-8" d="M553.87 79c-120.7 83.59-7.9 205.31 55.69 352.59 30.81 71.37 40.78 160.25 23.53 232.71C829.56 392.86 442.5 205.51 553.87 79"/></clipPath><clipPath id="clip-path-17"><path class="cls-8" d="M535.1 94c-89 82.87 14.57 198.91 74.46 337.63 30.81 71.37 40.78 160.25 23.53 232.71C759.69 455.77 432.71 217.43 535.1 94"/></clipPath><clipPath id="clip-path-18"><path class="cls-8" d="M743 291.78c-1.09 32.06-7.13 59.14-18.28 74.79-.34 18.62-4.8 55.44-16.19 71.35 0 0 52.63-54.17 34.47-146.14"/></clipPath><clipPath id="clip-path-19"><path class="cls-8" d="M724.72 366.57c6.18-139.44-218.59-177.3-131-309.89 0 0-57.74 36.79-20.55 108.92S720.43 292 708.53 437.92c0 0 15.28-21.36 16.19-71.35"/></clipPath><clipPath id="clip-path-20"><path class="cls-8" d="M233.79 737.24l.27-1 5.51-20.46c34.23-114.31 90.24-184.47 178.25-242.32C550 386.62 495 201.92 448.19 155.15c56.32 126.9 40 222.21-44.39 294.67-92.34 79.26-166.4 171.18-170 287.42"/></clipPath><clipPath id="clip-path-21"><path class="cls-8" d="M233.78 737.19c-38.52-305.51 262.73-344.8 214.41-582 0 85.38-67.73 133.32-102.33 156.92 1.54-30.05-6.22-51.78-13-63.76-17.05 55.51-87.14 134.48-122.65 243.11C188 559.24 186.39 645.5 223.45 717.6z"/></clipPath><clipPath id="clip-path-22"><path class="cls-8" d="M332.82 248.31c-17.05 55.51-87.14 134.48-122.65 243.11C188 559.24 186.39 645.5 223.45 717.6l3.37 6.39c-89.42-182 103.66-370.08 106-475.68m-99 488.88v-.1l-.43-.74z"/></clipPath><clipPath id="clip-path-23"><path class="cls-8" d="M448.19 155.15c0 85.38-67.73 133.32-102.33 156.92 0 0-2.13 22.35-16.2 32 0 0 134.25-69.74 118.53-188.93"/></clipPath><clipPath id="clip-path-24"><path class="cls-8" d="M345.86 312.07c1.54-30.05-6.22-51.78-13-63.76 8.89 59.91-3.16 95.77-3.16 95.77 14.07-9.66 16.2-32 16.2-32"/></clipPath><mask id="mask" x="328.9" y="544.19" width="166.97" height="348.18" maskUnits="userSpaceOnUse"><path fill="url(#linear-gradient)" d="M328.9 544.19h166.97v348.18H328.9z"/></mask><mask id="mask-2" x="545.55" y="440.05" width="220.08" height="315.21" maskUnits="userSpaceOnUse"><path fill="url(#linear-gradient-2)" d="M545.55 440.05h220.08v315.21H545.55z"/></mask><mask id="mask-3" x="633.09" y="291.78" width="136.9" height="372.51" maskUnits="userSpaceOnUse"><path fill="url(#linear-gradient-3)" d="M633.09 291.78h136.9v372.51h-136.9z"/></mask><mask id="mask-4" x="233.79" y="155.15" width="247.43" height="582.09" maskUnits="userSpaceOnUse"><path fill="url(#linear-gradient-4)" d="M233.79 155.15h247.43v582.09H233.79z"/></mask><mask id="mask-5" x="573.19" y="165.6" width="136.24" height="272.32" maskUnits="userSpaceOnUse"><path fill="url(#linear-gradient-5)" d="M573.19 165.6h136.24v272.32H573.19z"/></mask><mask id="mask-6" x="633.09" y="291.78" width="122.39" height="372.51" maskUnits="userSpaceOnUse"><path fill="url(#linear-gradient-6)" d="M633.09 291.78h122.39v372.51H633.09z"/></mask><mask id="mask-7" x="329.46" y="248.31" width="6.63" height="95.8" maskUnits="userSpaceOnUse"><path fill="url(#linear-gradient-7)" d="M329.46 248.31h6.63v95.8h-6.63z"/></mask><style>.cls-8{fill:none;clip-rule:evenodd}.cls-34{fill:#ffe0b2;fill-rule:evenodd}</style></defs><g clip-path="url(#clip-path)"><path fill="url(#linear-gradient-8)" d="M237.4 239.24h610.87v497.88H237.4z"/></g><g clip-path="url(#clip-path-2)"><path fill="url(#linear-gradient-9)" d="M151.96 239.24h610.87v497.88H151.96z"/></g><g clip-path="url(#clip-path-3)"><path fill="url(#linear-gradient-10)" d="M417.75 282.26h94.38v191.26h-94.38z"/></g><g clip-path="url(#clip-path-4)"><path fill="url(#linear-gradient-11)" d="M535.44 284.11h65.58V415.4h-65.58z"/></g><g clip-path="url(#clip-path-5)"><path fill="url(#linear-gradient-12)" d="M237.4 437.92h610.87V935.8H237.4z"/></g><g clip-path="url(#clip-path-6)"><path fill="url(#linear-gradient-13)" d="M151.96 437.92h610.87V935.8H151.96z"/></g><g clip-path="url(#clip-path-7)"><path fill="url(#linear-gradient-14)" d="M194.66 282.09h301.85v610.87H194.66z"/></g><g clip-path="url(#clip-path-8)"><path fill="url(#linear-gradient-15)" d="M243.13 511.43h252.74v380.94H243.13z"/></g><g clip-path="url(#clip-path-9)"><path fill="url(#linear-gradient-16)" d="M367.22 664.37h394.33v212.75H367.22z"/></g><g clip-path="url(#clip-path-10)"><path fill="url(#linear-gradient-17)" d="M367.22 664.37h394.33V810.2H367.22z"/></g><g clip-path="url(#clip-path-11)"><path fill="url(#linear-gradient-18)" d="M500.66 438.82h317.03v331.66H500.66z"/></g><g clip-path="url(#clip-path-12)"><path fill="url(#linear-gradient-19)" d="M500.66 438.82h265.47v315.21H500.66z"/></g><g mask="url(#mask)"><path class="cls-34" d="M332.92 544.19c-20.57 135.95 38.51 278.47 163 348.18-118.11-70.58-172-214.24-163-348.18"/></g><g mask="url(#mask-2)"><path d="M545.55 755.26c128-50.16 221.91-172.59 220.06-315.21-2.1 137.54-99.56 256-220.06 315.21" fill="url(#linear-gradient-20)" fill-rule="evenodd"/></g><g clip-path="url(#clip-path-13)"><path fill="url(#linear-gradient-21)" d="M323.92 511.43h171.95v380.94H323.92z"/></g><g clip-path="url(#clip-path-14)"><path fill="url(#linear-gradient-22)" d="M186.39 155.15h363.58v582.08H186.39z"/></g><g clip-path="url(#clip-path-15)"><path fill="url(#linear-gradient-23)" d="M411.72 56.68H774.2V664.3H411.72z"/></g><g clip-path="url(#clip-path-16)"><path fill="url(#linear-gradient-24)" d="M433.17 78.99h396.38v585.3H433.17z"/></g><g mask="url(#mask-3)"><path d="M633.09 664.29c52.49-42.66 119.75-135 134.12-226.66 7-44.5 1.49-107.43-24.21-145.85 0 0 67.12 186.26-109.91 372.51" fill="#ffcc80" fill-rule="evenodd"/></g><g clip-path="url(#clip-path-17)"><path fill="url(#linear-gradient-25)" d="M432.71 93.95h326.98v570.34H432.71z"/></g><g clip-path="url(#clip-path-18)"><path fill="url(#linear-gradient-26)" d="M708.53 291.78h52.63v146.14h-52.63z"/></g><g clip-path="url(#clip-path-19)"><path fill="url(#linear-gradient-27)" d="M506.13 56.68H730.9v381.25H506.13z"/></g><g clip-path="url(#clip-path-20)"><path fill="url(#linear-gradient-28)" d="M233.79 155.15h316.18v582.09H233.79z"/></g><g clip-path="url(#clip-path-21)"><path fill="url(#linear-gradient-29)" d="M186.39 155.15h310.12v582.04H186.39z"/></g><g clip-path="url(#clip-path-22)"><path fill="url(#linear-gradient-30)" d="M137.4 248.31h195.42v488.88H137.4z"/></g><g clip-path="url(#clip-path-23)"><path fill="url(#linear-gradient-31)" d="M329.66 155.15h134.25v188.93H329.66z"/></g><g clip-path="url(#clip-path-24)"><path fill="url(#linear-gradient-32)" d="M329.66 248.31h17.73v95.77h-17.73z"/></g><g mask="url(#mask-4)"><path class="cls-34" d="M448.19 155.15c56.32 126.9 35.52 217.72-48.89 290.17C307 524.58 237.4 621 233.79 737.24c3.61-116.24 77.67-208.16 170-287.42 84.4-72.46 100.71-167.77 44.39-294.67"/></g><g mask="url(#mask-5)"><path class="cls-34" d="M573.19 165.6c31.53 73.71 138.59 128.83 135.34 272.32C720.43 292 610.37 237.74 573.19 165.6"/></g><g mask="url(#mask-6)"><path class="cls-34" d="M743 291.78c-5 1.25 60.64 187.89-109.91 372.51C810.12 478 743 291.78 743 291.78"/></g><g mask="url(#mask-7)"><path class="cls-34" d="M332.82 248.31c5.11 62.57-4.85 96.95-3.16 95.77 0 0 12-35.86 3.16-95.77"/></g><path d="M747.15 492.94v285.37Q623.58 849.67 500 921L252.87 778.33V492.94L500 350.23z" fill="#fff"/><path d="M513.17 562.12h-16.26v70.14h16.26q11.1 0 11.09-14.08v-42q0-14.05-11.09-14.06zm0 0h-16.26v70.14h16.26q11.1 0 11.09-14.08v-42q0-14.05-11.09-14.06zm0 0h-16.26v70.14h16.26q11.1 0 11.09-14.08v-42q0-14.05-11.09-14.06zm0 0h-16.26v70.14h16.26q11.1 0 11.09-14.08v-42q0-14.05-11.09-14.06zM500 382.75l-106.36 61.4v177h30.46v-82.6h24.78V733h-24.77v-88.28h-30.46V733h-24.79V458.46L281 509.18v252.88L500 888.5l69.69-40.24v-309.7h61.44v23.56h-36.65v59H627v23.56h-32.52V834L719 762.06V509.18zM528.13 733l-16.26-78.54h-15V733h-24.74V538.56h48.52q28.4 0 28.4 33.31v47.94q0 25.46-14.72 32.23l17.3 81zm-15-170.89h-16.22v70.14h16.26q11.1 0 11.09-14.08v-42q0-14.04-11.09-14.05zm0 0h-16.22v70.14h16.26q11.1 0 11.09-14.08v-42q0-14.04-11.09-14.05zm0 0h-16.22v70.14h16.26q11.1 0 11.09-14.08v-42q0-14.04-11.09-14.05z" fill="#231f20"/><path d="M766.46 481.78l-41.92-24.21-41.92-24.21-23.78-13.73-11.89-6.87L635 405.9l-35.75-20.64q-9-5.22-18.1-10.46L560.74 363l-10.21-5.91-10.23-5.91c-2.75-1.57-5.49-3.16-8.24-4.74l-4.12-2.38c-1.38-.8-2.76-1.58-4.12-2.38L500 327.94q-17.58 10.14-35.15 20.3l-7.75 4.47-17.58 10.15-9.82 5.67-98.08 56.62-98.09 56.64v307.7L300.14 828l66.63 38.45 67.53 39 65.7 37.86q13.65-7.9 27.36-15.79l7.88-4.56c2.62-1.5 5.25-3 7.87-4.54l15.76-9.1 31.49-18.19 20-11.53L613 878l40.35-23.28q12.69-7.35 25.4-14.67l25.39-14.66 62.29-36V481.78zm-22.1 294.93l-2.36 1.37-16.69 9.63-22.07 12.75-58.92 34-37.83 21.84-7.49 4.34-26 15-52.31 30.19-8.85 5.17-11.84 6.79-18.37-10.61L437 881.4l-171.14-98.79-10.18-5.88V494.56l107-61.77 26-15 33.83-19.53 23.47-13.54L500 353.47l9 5.2 19.51 11.26 71.87 41.49L634 430.8l22 12.7 67.45 39h-1.26 1.3l20.92 12.09z" fill="#082732"/><path d="M766.47 593.2v196.27l-62.29 36-25.39 14.66q-12.72 7.33-25.4 14.67L613 878a219 219 0 01-6.56-21.73l37.83-21.84 58.92-34 22.07-12.75 16.74-9.6 2.36-1.37V599.8a213.4 213.4 0 0122.11-6.6z" fill="#e65100"/><path d="M600.41 410.44v1l-71.87-41.49L509 358.67l-9-5.2-54.15 31.24-23.45 13.55-33.83 19.54-26 15-107 61.77V684q-11.25-2.6-22.12-6.11V481.78l98.09-56.64 98.08-56.62 9.82-5.67 17.58-10.15 7.75-4.47q17.56-10.17 35.15-20.3l23.8 13.74c1.36.8 2.74 1.58 4.12 2.38l4.12 2.38c2.75 1.58 5.49 3.17 8.24 4.74l10.23 5.91 10.31 5.92 20.45 11.8q9 5.25 18.1 10.46 1.13 12.45 1.12 25.18z" fill="#2c5f79"/><path d="M437 881.4q-.8 12.17-2.69 24l-67.53-39-66.64-38.4-66.6-38.47V611.76q11.25 2.4 22.12 5.77v159.18l10.18 5.88z" fill="#00adb5"/></svg>